<svg width="43" height="43" viewBox="0 0 43 43" fill="none" xmlns="http://www.w3.org/2000/svg">
<path d="M21.5 25.0833C20.9924 25.0833 20.5668 24.9116 20.2234 24.5682C19.88 24.2248 19.7083 23.7993 19.7083 23.2917C19.7083 22.784 19.88 22.3585 20.2234 22.0151C20.5668 21.6717 20.9924 21.5 21.5 21.5C22.0076 21.5 22.4332 21.6717 22.7766 22.0151C23.12 22.3585 23.2917 22.784 23.2917 23.2917C23.2917 23.7993 23.12 24.2248 22.7766 24.5682C22.4332 24.9116 22.0076 25.0833 21.5 25.0833ZM14.3333 25.0833C13.8257 25.0833 13.4002 24.9116 13.0568 24.5682C12.7134 24.2248 12.5417 23.7993 12.5417 23.2917C12.5417 22.784 12.7134 22.3585 13.0568 22.0151C13.4002 21.6717 13.8257 21.5 14.3333 21.5C14.841 21.5 15.2665 21.6717 15.6099 22.0151C15.9533 22.3585 16.125 22.784 16.125 23.2917C16.125 23.7993 15.9533 24.2248 15.6099 24.5682C15.2665 24.9116 14.841 25.0833 14.3333 25.0833ZM28.6667 25.0833C28.159 25.0833 27.7335 24.9116 27.3901 24.5682C27.0467 24.2248 26.875 23.7993 26.875 23.2917C26.875 22.784 27.0467 22.3585 27.3901 22.0151C27.7335 21.6717 28.159 21.5 28.6667 21.5C29.1743 21.5 29.5998 21.6717 29.9432 22.0151C30.2866 22.3585 30.4583 22.784 30.4583 23.2917C30.4583 23.7993 30.2866 24.2248 29.9432 24.5682C29.5998 24.9116 29.1743 25.0833 28.6667 25.0833ZM21.5 32.25C20.9924 32.25 20.5668 32.0783 20.2234 31.7349C19.88 31.3915 19.7083 30.966 19.7083 30.4583C19.7083 29.9507 19.88 29.5252 20.2234 29.1818C20.5668 28.8384 20.9924 28.6667 21.5 28.6667C22.0076 28.6667 22.4332 28.8384 22.7766 29.1818C23.12 29.5252 23.2917 29.9507 23.2917 30.4583C23.2917 30.966 23.12 31.3915 22.7766 31.7349C22.4332 32.0783 22.0076 32.25 21.5 32.25ZM14.3333 32.25C13.8257 32.25 13.4002 32.0783 13.0568 31.7349C12.7134 31.3915 12.5417 30.966 12.5417 30.4583C12.5417 29.9507 12.7134 29.5252 13.0568 29.1818C13.4002 28.8384 13.8257 28.6667 14.3333 28.6667C14.841 28.6667 15.2665 28.8384 15.6099 29.1818C15.9533 29.5252 16.125 29.9507 16.125 30.4583C16.125 30.966 15.9533 31.3915 15.6099 31.7349C15.2665 32.0783 14.841 32.25 14.3333 32.25ZM28.6667 32.25C28.159 32.25 27.7335 32.0783 27.3901 31.7349C27.0467 31.3915 26.875 30.966 26.875 30.4583C26.875 29.9507 27.0467 29.5252 27.3901 29.1818C27.7335 28.8384 28.159 28.6667 28.6667 28.6667C29.1743 28.6667 29.5998 28.8384 29.9432 29.1818C30.2866 29.5252 30.4583 29.9507 30.4583 30.4583C30.4583 30.966 30.2866 31.3915 29.9432 31.7349C29.5998 32.0783 29.1743 32.25 28.6667 32.25ZM8.0625 39.4167C7.34583 39.4167 6.71875 39.1479 6.18125 38.6104C5.64375 38.0729 5.375 37.4458 5.375 36.7292V8.95834C5.375 8.24167 5.64375 7.61458 6.18125 7.07708C6.71875 6.53958 7.34583 6.27083 8.0625 6.27083H10.974V3.58333H13.8854V6.27083H29.1146V3.58333H32.026V6.27083H34.9375C35.6542 6.27083 36.2812 6.53958 36.8187 7.07708C37.3562 7.61458 37.625 8.24167 37.625 8.95834V36.7292C37.625 37.4458 37.3562 38.0729 36.8187 38.6104C36.2812 39.1479 35.6542 39.4167 34.9375 39.4167H8.0625ZM8.0625 36.7292H34.9375V17.4688H8.0625V36.7292Z" fill="#853857"/>
</svg>
