<svg width="37" height="37" viewBox="0 0 37 37" fill="none" xmlns="http://www.w3.org/2000/svg">
<path d="M25.0845 27.1448L27.1002 25.1292L19.9783 17.9625V8.95939H17.2908V19.0375L25.0845 27.1448ZM18.5002 36.4167C16.0516 36.4167 13.7373 35.9464 11.5575 35.0057C9.3776 34.0651 7.47395 32.7811 5.84652 31.1537C4.21909 29.5262 2.93506 27.6226 1.99443 25.4427C1.05381 23.2629 0.583496 20.9486 0.583496 18.5C0.583496 16.0514 1.05381 13.7372 1.99443 11.5573C2.93506 9.37744 4.21909 7.4738 5.84652 5.84637C7.47395 4.21893 9.3776 2.93491 11.5575 1.99428C13.7373 1.05366 16.0516 0.583344 18.5002 0.583344C20.9488 0.583344 23.263 1.05366 25.4429 1.99428C27.6227 2.93491 29.5264 4.21893 31.1538 5.84637C32.7812 7.4738 34.0653 9.37744 35.0059 11.5573C35.9465 13.7372 36.4168 16.0514 36.4168 18.5C36.4168 20.9486 35.9465 23.2629 35.0059 25.4427C34.0653 27.6226 32.7812 29.5262 31.1538 31.1537C29.5264 32.7811 27.6227 34.0651 25.4429 35.0057C23.263 35.9464 20.9488 36.4167 18.5002 36.4167ZM18.5002 33.7292C22.6807 33.7292 26.2641 32.2361 29.2502 29.25C32.2363 26.2639 33.7293 22.6806 33.7293 18.5C33.7293 14.3195 32.2363 10.7361 29.2502 7.75001C26.2641 4.7639 22.6807 3.27084 18.5002 3.27084C14.3196 3.27084 10.7363 4.7639 7.75016 7.75001C4.76405 10.7361 3.271 14.3195 3.271 18.5C3.271 22.6806 4.76405 26.2639 7.75016 29.25C10.7363 32.2361 14.3196 33.7292 18.5002 33.7292Z" fill="#6488BE"/>
</svg>
