<svg width="44" height="40" viewBox="0 0 44 40" fill="none" xmlns="http://www.w3.org/2000/svg">
<path d="M19.85 28.7L31 17.55L28.85 15.4L19.85 24.4L15.15 19.7L13 21.85L19.85 28.7ZM21.95 39.9C19.4833 39.9 17.1583 39.4333 14.975 38.5C12.7917 37.5667 10.8917 36.2917 9.275 34.675C7.65833 33.0583 6.375 31.1583 5.425 28.975C4.475 26.7917 4 24.4544 4 21.9633C4 19.4722 4.475 17.1389 5.425 14.9633C6.375 12.7878 7.65833 10.8833 9.275 9.24999C10.8917 7.61666 12.7917 6.33333 14.975 5.39999C17.1583 4.46666 19.4833 3.99999 21.95 3.99999C24.4167 3.99999 26.7417 4.46666 28.925 5.39999C31.1083 6.33333 33.0167 7.61666 34.65 9.24999C36.2833 10.8833 37.5667 12.7878 38.5 14.9633C39.4333 17.1389 39.9 19.4722 39.9 21.9633C39.9 24.4544 39.4333 26.7917 38.5 28.975C37.5667 31.1583 36.2833 33.0583 34.65 34.675C33.0167 36.2917 31.1083 37.5667 28.925 38.5C26.7417 39.4333 24.4167 39.9 21.95 39.9ZM8.7 0.649994L10.8 2.74999L2.6 10.65L0.5 8.54999L8.7 0.649994ZM35.2 0.649994L43.4 8.54999L41.3 10.65L33.1 2.74999L35.2 0.649994ZM21.9522 36.9C26.1174 36.9 29.65 35.4493 32.55 32.5478C35.45 29.6464 36.9 26.1131 36.9 21.9478C36.9 17.7826 35.4493 14.25 32.5478 11.35C29.6464 8.44999 26.1131 6.99999 21.9479 6.99999C17.7826 6.99999 14.25 8.45071 11.35 11.3521C8.45 14.2536 7 17.7869 7 21.9521C7 26.1174 8.45072 29.65 11.3522 32.55C14.2536 35.45 17.7869 36.9 21.9522 36.9Z" fill="#853857"/>
</svg>
